Coordinates
version=1
nRows=11
nColumns=63
inDegrees=yes

Units are S.I. units (second, meters, Newtons, ...)
If the header above contains a line with 'inDegrees', this indicates whether rotational values are in degrees (yes) or radians (no).

endheader
time	pelvis_tilt	pelvis_list	pelvis_rotation	pelvis_tx	pelvis_ty	pelvis_tz	hip_flexion_r	hip_adduction_r	hip_rotation_r	knee_angle_r	knee_angle_r_beta	ankle_angle_r	subtalar_angle_r	mtp_angle_r	hip_flexion_l	hip_adduction_l	hip_rotation_l	knee_angle_l	knee_angle_l_beta	ankle_angle_l	subtalar_angle_l	mtp_angle_l	L5_S1_Flex_Ext	L5_S1_Lat_Bending	L5_S1_axial_rotation	L4_L5_Flex_Ext	L4_L5_Lat_Bending	L4_L5_axial_rotation	L3_L4_Flex_Ext	L3_L4_Lat_Bending	L3_L4_axial_rotation	L2_L3_Flex_Ext	L2_L3_Lat_Bending	L2_L3_axial_rotation	L1_L2_Flex_Ext	L1_L2_Lat_Bending	L1_L2_axial_rotation	L1_T12_Flex_Ext	L1_T12_Lat_Bending	L1_T12_axial_rotation	Abs_r3	Abs_r2	Abs_r1	Abs_t1	Abs_t2	neck_flexion	neck_bending	neck_rotation	arm_flex_r	arm_add_r	arm_rot_r	elbow_flex_r	pro_sup_r	wrist_flex_r	wrist_dev_r	arm_flex_l	arm_add_l	arm_rot_l	elbow_flex_l	pro_sup_l	wrist_flex_l	wrist_dev_l
2.750000	0.047949	-4.134578	92.404290	0.253173	0.946870	0.297580	5.089679	-2.383384	-19.110545	11.324168	0.197644	19.225896	17.609595	0.000000	2.031230	2.672136	1.170206	1.751461	0.030569	10.884905	-14.278748	0.000000	0.103441	0.025886	0.363000	0.192100	0.034429	0.385687	0.169943	0.062940	0.385687	0.118223	0.062940	0.317625	0.096055	0.052787	0.294937	0.059106	0.040098	0.272250	0.738869	0.292830	2.018896	0.000000	0.000000	7.259087	-1.293792	5.236413	9.135140	-10.897577	59.838675	47.901368	31.397106	1.726938	10.538214	11.354169	-6.307641	56.613296	52.971825	61.828384	-4.162428	3.658985
2.766667	0.142807	-4.104917	92.534923	0.252874	0.946872	0.297850	5.085327	-2.311062	-19.208048	11.326135	0.197678	19.202245	17.595999	0.000000	1.947508	2.572883	1.322542	1.557268	0.027179	10.899710	-14.150902	0.000000	0.097212	0.039820	0.302575	0.180533	0.052961	0.321486	0.159710	0.096818	0.321486	0.111104	0.096818	0.264753	0.090271	0.081201	0.245842	0.055547	0.061681	0.226931	0.694379	0.450452	1.682831	0.000000	0.000000	7.271378	-1.327172	5.498026	9.438183	-10.865932	60.487266	47.650939	31.537983	2.120652	10.597820	11.213184	-6.333241	56.023976	53.086166	61.634946	-4.827367	3.194205
2.783333	0.239575	-4.081564	92.656726	0.252644	0.946876	0.298166	5.091524	-2.227350	-19.255960	11.309701	0.197392	19.176851	17.586900	0.000000	1.883285	2.464146	1.359157	1.382694	0.024133	10.952465	-13.877774	0.000000	0.091274	0.052814	0.248074	0.169505	0.070242	0.263579	0.149954	0.128411	0.263579	0.104317	0.128411	0.217065	0.084757	0.107697	0.201560	0.052154	0.081808	0.186055	0.651962	0.597437	1.379713	0.000000	0.000000	7.289210	-1.327741	5.705471	9.702653	-10.829066	60.973123	47.426414	31.730892	2.552302	10.626788	11.107817	-6.362596	55.508305	53.213002	61.385478	-5.529339	2.697763
2.800000	0.335550	-4.071625	92.799208	0.252437	0.946864	0.298523	5.110167	-2.139069	-19.293792	11.277515	0.196830	19.149855	17.579019	0.000000	1.849135	2.355741	1.502578	1.233794	0.021534	10.954351	-13.774315	0.000000	0.086780	0.064121	0.191200	0.161159	0.085280	0.203151	0.142571	0.155903	0.203151	0.099181	0.155903	0.167300	0.080584	0.130755	0.155350	0.049586	0.099323	0.143400	0.619861	0.725344	1.063400	0.000000	0.000000	7.314751	-1.307136	5.851463	9.966990	-10.796706	61.428662	47.236268	31.845773	2.974407	10.546845	11.006445	-6.399459	54.987815	53.367584	61.198496	-6.156892	2.256625
2.816667	0.426029	-4.070135	92.926776	0.252299	0.946841	0.298885	5.137390	-2.049085	-19.295970	11.233800	0.196067	19.114182	17.571328	0.000000	1.838780	2.249462	1.605577	1.121530	0.019574	10.966934	-13.658771	0.000000	0.082787	0.073366	0.144028	0.153744	0.097576	0.153029	0.136011	0.178381	0.153029	0.094617	0.178381	0.126024	0.076876	0.149607	0.117023	0.047305	0.113643	0.108021	0.591340	0.829927	0.801039	0.000000	0.000000	7.367579	-1.265396	5.920898	10.159587	-10.763847	61.681075	47.104239	31.964912	3.415433	10.409869	10.936064	-6.445239	54.563174	53.535084	61.056117	-6.728834	1.835230
2.833333	0.508178	-4.077186	93.030336	0.252242	0.946823	0.299258	5.174217	-1.961642	-19.281252	11.182010	0.195163	19.042564	17.571029	0.000000	1.845505	2.148976	1.699066	1.031330	0.018000	10.974968	-13.579464	0.000000	0.079659	0.080371	0.105207	0.147934	0.106894	0.111782	0.130872	0.195414	0.111782	0.091042	0.195414	0.092056	0.073971	0.163893	0.085481	0.045517	0.124495	0.078905	0.568995	0.909175	0.585130	0.000000	0.000000	7.411920	-1.237048	5.913891	10.328897	-10.731768	61.856681	47.012559	32.024052	3.826343	10.180207	10.886616	-6.497230	54.202350	53.713120	61.082350	-7.165830	1.509670
2.850000	0.580740	-4.088552	93.105391	0.252253	0.946801	0.299613	5.214428	-1.879649	-19.250634	11.126191	0.194189	18.938896	17.576369	0.000000	1.859635	2.058286	1.822012	0.957994	0.016720	10.978310	-13.596785	0.000000	0.076903	0.085322	0.076292	0.142817	0.113478	0.081060	0.126344	0.207452	0.081060	0.087892	0.207452	0.066755	0.071412	0.173989	0.061987	0.043942	0.132164	0.057219	0.549311	0.965182	0.424311	0.000000	0.000000	7.459607	-1.225658	5.827627	10.473753	-10.721193	61.979477	46.995566	31.995129	4.175825	9.834548	10.850463	-6.552093	53.909812	53.897576	61.321608	-7.455347	1.262489
2.866667	0.642566	-4.102729	93.141180	0.252337	0.946778	0.299921	5.252970	-1.802870	-19.195322	11.063567	0.193096	18.801043	17.579160	0.000000	1.878674	1.978875	1.933469	0.905199	0.015799	11.000088	-13.654440	0.000000	0.074864	0.088484	0.058122	0.139029	0.117684	0.061755	0.122993	0.215140	0.061755	0.085562	0.215140	0.050857	0.069518	0.180437	0.047224	0.042777	0.137062	0.043591	0.534743	1.000949	0.323257	0.000000	0.000000	7.504699	-1.213402	5.703632	10.603254	-10.744042	62.105516	47.063162	31.768812	4.434288	9.340135	10.803947	-6.605016	53.641433	54.087150	61.819848	-7.603440	1.102462
2.883333	0.692302	-4.121444	93.146487	0.252472	0.946755	0.300156	5.290270	-1.736254	-19.143942	11.001716	0.192016	18.643183	17.592789	0.000000	1.902720	1.911047	1.936696	0.874617	0.015265	11.087525	-13.572937	0.000000	0.074770	0.089990	0.051612	0.138856	0.119687	0.054838	0.122840	0.218803	0.054838	0.085455	0.218803	0.045161	0.069432	0.183509	0.041935	0.042724	0.139395	0.038709	0.534076	1.017990	0.287051	0.000000	0.000000	7.526243	-1.192077	5.550785	10.671340	-10.788092	62.086723	47.209051	31.472052	4.665664	8.882433	10.765394	-6.653551	53.462477	54.273020	62.438327	-7.662741	1.016208
2.900000	0.729539	-4.143467	93.079077	0.252728	0.946736	0.300289	5.326862	-1.674338	-19.048668	10.937918	0.190903	18.476903	17.614068	0.000000	1.925320	1.853056	1.790735	0.865612	0.015108	11.238265	-13.362614	0.000000	0.077310	0.089923	0.066004	0.143573	0.119597	0.070129	0.127013	0.218638	0.070129	0.088358	0.218638	0.057753	0.071790	0.183370	0.053628	0.044175	0.139290	0.049503	0.552219	1.017221	0.367093	0.000000	0.000000	7.499728	-1.129853	5.394614	10.665719	-10.861629	61.934471	47.464932	31.028070	4.767696	8.400031	10.754639	-6.701367	53.412424	54.453111	63.040309	-7.615939	1.028771
2.916667	0.766251	-4.156340	92.999218	0.252978	0.946746	0.300312	5.340343	-1.611303	-18.956858	10.873274	0.189774	18.316299	17.626918	0.000000	1.932484	1.799983	1.725940	0.872452	0.015227	11.357421	-13.279355	0.000000	0.081048	0.090637	0.084917	0.150515	0.120547	0.090224	0.133154	0.220374	0.090224	0.092630	0.220374	0.074302	0.075261	0.184826	0.068995	0.046311	0.140396	0.063688	0.578919	1.025298	0.472284	0.000000	0.000000	7.402797	-1.008657	5.330205	10.632093	-10.980370	61.744032	47.828328	30.333294	4.735590	7.946137	10.749563	-6.733884	53.409767	54.632859	63.554119	-7.487591	1.187955
